<svg width="93" height="25" viewBox="0 0 93 25" fill="none" xmlns="http://www.w3.org/2000/svg">
<path d="M14.2727 0.727272H20.5909V15.6364C20.5909 17.4091 20.1667 18.9432 19.3182 20.2386C18.4773 21.5265 17.303 22.5227 15.7955 23.2273C14.2879 23.9242 12.5379 24.2727 10.5455 24.2727C8.53788 24.2727 6.7803 23.9242 5.27273 23.2273C3.76515 22.5227 2.59091 21.5265 1.75 20.2386C0.916667 18.9432 0.5 17.4091 0.5 15.6364V0.727272H6.81818V15.0909C6.81818 15.8106 6.97727 16.4545 7.29545 17.0227C7.61364 17.5833 8.05303 18.0227 8.61364 18.3409C9.18182 18.6591 9.82576 18.8182 10.5455 18.8182C11.2727 18.8182 11.9167 18.6591 12.4773 18.3409C13.0379 18.0227 13.4773 17.5833 13.7955 17.0227C14.1136 16.4545 14.2727 15.8106 14.2727 15.0909V0.727272ZM30.3665 0.727272L34.1847 7.5H34.3665L38.2301 0.727272H45.2756L38.321 12.3636L45.5483 24H38.321L34.3665 17.0909H34.1847L30.2301 24H23.0483L30.1847 12.3636L23.2756 0.727272H30.3665Z" fill="#1937B2"/>
<path d="M47.8182 20.3636V15.4545L57.1818 0.727272H61.6364V7.27273H59.0909L54.0455 15.2727V15.4545H67.8636V20.3636H47.8182ZM59.1364 24V18.8636L59.2727 16.7273V0.727272H65.1818V24H59.1364ZM85.5824 8.40909C85.4839 8.00758 85.3286 7.6553 85.1165 7.35227C84.9044 7.04167 84.6392 6.7803 84.321 6.56818C84.0104 6.34848 83.6468 6.18561 83.2301 6.07954C82.821 5.96591 82.3703 5.90909 81.8778 5.90909C80.8172 5.90909 79.9119 6.16288 79.1619 6.67045C78.4195 7.17803 77.8513 7.90909 77.4574 8.86364C77.071 9.81818 76.8778 10.9697 76.8778 12.3182C76.8778 13.6818 77.0634 14.8485 77.4347 15.8182C77.8059 16.7879 78.3589 17.5303 79.0938 18.0455C79.8286 18.5606 80.7415 18.8182 81.8324 18.8182C82.7945 18.8182 83.5938 18.678 84.2301 18.3977C84.8741 18.1174 85.3551 17.7197 85.6733 17.2045C85.9915 16.6894 86.1506 16.0833 86.1506 15.3864L87.2415 15.5H81.9233V11H92.2415V14.2273C92.2415 16.3485 91.7907 18.1629 90.8892 19.6705C89.9953 21.1705 88.7604 22.322 87.1847 23.125C85.6165 23.9205 83.8172 24.3182 81.7869 24.3182C79.5218 24.3182 77.5331 23.8371 75.821 22.875C74.1089 21.9129 72.7718 20.5417 71.8097 18.7614C70.8551 16.9811 70.3778 14.8636 70.3778 12.4091C70.3778 10.4848 70.6695 8.7803 71.2528 7.29545C71.8438 5.81061 72.6619 4.55682 73.7074 3.53409C74.7528 2.50379 75.9612 1.72727 77.3324 1.20454C78.7036 0.674241 80.1733 0.40909 81.7415 0.40909C83.1203 0.40909 84.4006 0.60606 85.5824 1C86.7718 1.38636 87.821 1.93939 88.7301 2.65909C89.6468 3.37121 90.3854 4.21591 90.946 5.19318C91.5066 6.17045 91.8475 7.24242 91.9688 8.40909H85.5824Z" fill="#A066CC"/>
</svg>
