<svg width="14" height="14" viewBox="0 0 14 14" fill="none" xmlns="http://www.w3.org/2000/svg">
<path d="M6.99992 13.6667C6.0777 13.6667 5.21103 13.4916 4.39992 13.1413C3.58881 12.7916 2.88325 12.3167 2.28325 11.7167C1.68325 11.1167 1.20836 10.4111 0.858585 9.60001C0.508363 8.7889 0.333252 7.92223 0.333252 7.00001C0.333252 6.07779 0.508363 5.21112 0.858585 4.40001C1.20836 3.5889 1.68325 2.88334 2.28325 2.28334C2.88325 1.68334 3.58881 1.20823 4.39992 0.85801C5.21103 0.508232 6.0777 0.333344 6.99992 0.333344C7.72214 0.333344 8.40547 0.438899 9.04992 0.65001C9.69436 0.861121 10.2888 1.15557 10.8333 1.53334L9.86658 2.51668C9.44436 2.25001 8.99436 2.04157 8.51658 1.89134C8.03881 1.74157 7.53325 1.66668 6.99992 1.66668C5.52214 1.66668 4.26392 2.18601 3.22525 3.22468C2.18614 4.26379 1.66659 5.52223 1.66659 7.00001C1.66659 8.47779 2.18614 9.73623 3.22525 10.7753C4.26392 11.814 5.52214 12.3333 6.99992 12.3333C8.4777 12.3333 9.73614 11.814 10.7753 10.7753C11.8139 9.73623 12.3333 8.47779 12.3333 7.00001C12.3333 6.80001 12.3221 6.60001 12.2999 6.40001C12.2777 6.20001 12.2444 6.00557 12.1999 5.81668L13.2833 4.73334C13.4055 5.0889 13.4999 5.45557 13.5666 5.83334C13.6333 6.21112 13.6666 6.60001 13.6666 7.00001C13.6666 7.92223 13.4915 8.7889 13.1413 9.60001C12.7915 10.4111 12.3166 11.1167 11.7166 11.7167C11.1166 12.3167 10.411 12.7916 9.59992 13.1413C8.78881 13.4916 7.92214 13.6667 6.99992 13.6667ZM6.06659 10.0667L3.23325 7.23334L4.16658 6.30001L6.06659 8.20001L12.7333 1.51668L13.6666 2.45001L6.06659 10.0667Z" fill="#34A853"/>
</svg>
