<svg width="14" height="14" viewBox="0 0 14 14" fill="none" xmlns="http://www.w3.org/2000/svg">
<path d="M6.99992 10.3333C7.18881 10.3333 7.34725 10.2693 7.47525 10.1413C7.60281 10.0138 7.66658 9.85555 7.66658 9.66666C7.66658 9.47777 7.60281 9.31933 7.47525 9.19133C7.34725 9.06377 7.18881 8.99999 6.99992 8.99999C6.81103 8.99999 6.65281 9.06377 6.52525 9.19133C6.39725 9.31933 6.33325 9.47777 6.33325 9.66666C6.33325 9.85555 6.39725 10.0138 6.52525 10.1413C6.65281 10.2693 6.81103 10.3333 6.99992 10.3333ZM6.33325 7.66666H7.66658V3.66666H6.33325V7.66666ZM6.99992 13.6667C6.0777 13.6667 5.21103 13.4915 4.39992 13.1413C3.58881 12.7915 2.88325 12.3167 2.28325 11.7167C1.68325 11.1167 1.20836 10.4111 0.858585 9.59999C0.508363 8.78888 0.333252 7.92222 0.333252 6.99999C0.333252 6.07777 0.508363 5.21111 0.858585 4.39999C1.20836 3.58888 1.68325 2.88333 2.28325 2.28333C2.88325 1.68333 3.58881 1.20822 4.39992 0.857995C5.21103 0.508217 6.0777 0.333328 6.99992 0.333328C7.92214 0.333328 8.78881 0.508217 9.59992 0.857995C10.411 1.20822 11.1166 1.68333 11.7166 2.28333C12.3166 2.88333 12.7915 3.58888 13.1413 4.39999C13.4915 5.21111 13.6666 6.07777 13.6666 6.99999C13.6666 7.92222 13.4915 8.78888 13.1413 9.59999C12.7915 10.4111 12.3166 11.1167 11.7166 11.7167C11.1166 12.3167 10.411 12.7915 9.59992 13.1413C8.78881 13.4915 7.92214 13.6667 6.99992 13.6667ZM6.99992 12.3333C8.48881 12.3333 9.74992 11.8167 10.7833 10.7833C11.8166 9.74999 12.3333 8.48888 12.3333 6.99999C12.3333 5.51111 11.8166 4.24999 10.7833 3.21666C9.74992 2.18333 8.48881 1.66666 6.99992 1.66666C5.51103 1.66666 4.24992 2.18333 3.21658 3.21666C2.18325 4.24999 1.66659 5.51111 1.66659 6.99999C1.66659 8.48888 2.18325 9.74999 3.21658 10.7833C4.24992 11.8167 5.51103 12.3333 6.99992 12.3333Z" fill="#B3261D"/>
</svg>
