<svg aria-hidden="true" style="position: absolute; width: 0; height: 0; overflow: hidden;" version="1.1" xmlns="http://www.w3.org/2000/svg" xmlns:xlink="http://www.w3.org/1999/xlink">
<defs>


<symbol id="icon_code" xmlns="http://www.w3.org/2000/svg"  viewBox="0 0 24 24" fill="none" stroke="currentColor" stroke-width="2" stroke-linecap="round" stroke-linejoin="round" class="feather feather-code"><polyline points="16 18 22 12 16 6"></polyline><polyline points="8 6 2 12 8 18"></polyline></symbol>

<symbol id="icon_design" xmlns="http://www.w3.org/2000/svg" viewBox="0 0 24 24" fill="none" stroke="currentColor" stroke-width="2" stroke-linecap="round" stroke-linejoin="round" class="feather feather-pen-tool"><path d="M12 19l7-7 3 3-7 7-3-3z"></path><path d="M18 13l-1.5-7.5L2 2l3.5 14.5L13 18l5-5z"></path><path d="M2 2l7.586 7.586"></path><circle cx="11" cy="11" r="2"></circle></symbol>


<symbol id="icon_close"  viewBox="0 0 24 24"  stroke="currentColor" stroke-width="2" stroke-linecap="round" stroke-linejoin="round" class="feather feather-x"><line x1="18" y1="6" x2="6" y2="18"></line><line x1="6" y1="6" x2="18" y2="18"></line></symbol>

<symbol id="icon_hamburger" class="bi" fill="currentColor" viewBox="0 0 16 16">
  <path fill-rule="evenodd" d="M2.5 11.5A.5.5 0 0 1 3 11h10a.5.5 0 0 1 0 1H3a.5.5 0 0 1-.5-.5zm0-4A.5.5 0 0 1 3 7h10a.5.5 0 0 1 0 1H3a.5.5 0 0 1-.5-.5zm0-4A.5.5 0 0 1 3 3h10a.5.5 0 0 1 0 1H3a.5.5 0 0 1-.5-.5z"></path>
</symbol>


<symbol id="icon_ellipsis" xmlns="http://www.w3.org/2000/svg" width="24" height="24" viewBox="0 0 24 24" fill="none" stroke="currentColor" stroke-width="2" stroke-linecap="round" stroke-linejoin="round" class="feather feather-more-horizontal"><circle cx="12" cy="12" r="1"></circle><circle cx="19" cy="12" r="1"></circle><circle cx="5" cy="12" r="1"></circle></symbol>


</defs>
</svg>
